<svg xmlns="http://www.w3.org/2000/svg" xmlns:xlink="http://www.w3.org/1999/xlink" viewBox="0 0 1024 1024"><defs><style>.cls-1{fill:none;}.cls-2{fill:#6e5291;}.cls-3{fill:#9482af;}.cls-4{fill:#65c1e5;}.cls-5{fill:#1898d4;}.cls-6{fill:#65c984;}.cls-7{fill:#1ba049;}.cls-8{fill:url(#radial-gradient);}.cls-9{fill:url(#radial-gradient-2);}.cls-10{fill:url(#radial-gradient-3);}.cls-11{fill:#666;}.cls-12{fill:#333;}.cls-13{fill:#4d4d4d;}.cls-14{fill:url(#Summer);}.cls-15{fill:gray;}.cls-16{fill:#b3b3b3;}.cls-17{fill:#afae71;}.cls-18{fill:#fff;}.cls-19{fill:#1a1a1a;}.cls-20{fill:url(#New_Pattern_9);}.cls-21{fill:url(#New_Pattern_8);}.cls-22{fill:url(#New_Pattern_3);}</style><radialGradient id="radial-gradient" cx="518.56" cy="506.79" r="510.84" gradientUnits="userSpaceOnUse"><stop offset="0" stop-color="#ffffcb"/><stop offset="0.13" stop-color="#fffdc5"/><stop offset="0.31" stop-color="#fff9b3"/><stop offset="0.52" stop-color="#fff196"/><stop offset="0.75" stop-color="#ffe76d"/><stop offset="0.99" stop-color="#ffd939"/><stop offset="1" stop-color="#ffd938"/></radialGradient><radialGradient id="radial-gradient-2" cx="531" cy="270" r="243" gradientUnits="userSpaceOnUse"><stop offset="0" stop-color="#ffffd2"/><stop offset="0.11" stop-color="#ffffd3" stop-opacity="0.98"/><stop offset="0.23" stop-color="#ffffd5" stop-opacity="0.93"/><stop offset="0.36" stop-color="#ffffd9" stop-opacity="0.84"/><stop offset="0.5" stop-color="#ffffdf" stop-opacity="0.71"/><stop offset="0.64" stop-color="#ffffe6" stop-opacity="0.55"/><stop offset="0.78" stop-color="#ffffef" stop-opacity="0.36"/><stop offset="0.93" stop-color="#fffff9" stop-opacity="0.13"/><stop offset="1" stop-color="#fff" stop-opacity="0"/></radialGradient><radialGradient id="radial-gradient-3" cx="530.89" cy="271.16" r="70.87" gradientUnits="userSpaceOnUse"><stop offset="0" stop-color="#ffffcb"/><stop offset="0.46" stop-color="#ffffc9"/><stop offset="0.62" stop-color="#ffffc2"/><stop offset="0.74" stop-color="#ffffb7"/><stop offset="0.83" stop-color="#ffffa6"/><stop offset="0.91" stop-color="#ffff90"/><stop offset="0.98" stop-color="#ffff75"/><stop offset="1" stop-color="#ffff6d"/></radialGradient><radialGradient id="Summer" cx="527.98" cy="273.54" r="23.61" gradientUnits="userSpaceOnUse"><stop offset="0" stop-color="#fff"/><stop offset="0.09" stop-color="#ffedd8"/><stop offset="0.21" stop-color="#ffd5a7"/><stop offset="0.33" stop-color="#ffc17d"/><stop offset="0.46" stop-color="#ffb05b"/><stop offset="0.59" stop-color="#ffa340"/><stop offset="0.72" stop-color="#ff9a2d"/><stop offset="0.86" stop-color="#ff9522"/><stop offset="1" stop-color="#ff931e"/></radialGradient><pattern id="New_Pattern_9" data-name="New Pattern 9" width="72" height="72" patternUnits="userSpaceOnUse" viewBox="0 0 72 72"><rect class="cls-1" width="72" height="72"/><path class="cls-6" d="M54,72H18A18,18,0,0,0,0,54V18A18,18,0,0,0,18,0H54A18,18,0,0,0,72,18V54A18,18,0,0,0,54,72Zm0-36A18,18,0,1,0,36,54,18,18,0,0,0,54,36Z"/><path class="cls-7" d="M0,54V72H18A18,18,0,0,0,0,54Z"/><path class="cls-7" d="M72,54A18,18,0,0,0,54,72H72Z"/><path class="cls-7" d="M72,18V0H54A18,18,0,0,0,72,18Z"/><path class="cls-7" d="M18,0H0V18A18,18,0,0,0,18,0Z"/><circle class="cls-7" cx="36" cy="36" r="18"/></pattern><pattern id="New_Pattern_8" data-name="New Pattern 8" width="72" height="72" patternUnits="userSpaceOnUse" viewBox="0 0 72 72"><rect class="cls-1" width="72" height="72"/><path class="cls-4" d="M72,45,45,72H27L0,45V27L27,0H45L72,27Zm-9-9L36,9,9,36,36,63Z"/><polygon class="cls-5" points="9 36 36 63 63 36 36 9 9 36"/><polygon class="cls-5" points="72 45 45 72 72 72 72 45"/><polygon class="cls-5" points="72 0 45 0 72 27 72 0"/><polygon class="cls-5" points="0 0 0 27 27 0 0 0"/><polygon class="cls-5" points="0 72 27 72 0 45 0 72"/></pattern><pattern id="New_Pattern_3" data-name="New Pattern 3" width="72" height="72" patternUnits="userSpaceOnUse" viewBox="0 0 72 72"><rect class="cls-1" width="72" height="72"/><polygon class="cls-1" points="53.86 0 0 53.86 0 54.14 54.14 0 53.86 0"/><polygon class="cls-1" points="54.14 72 72 54.14 72 53.86 53.86 72 54.14 72"/><polygon class="cls-1" points="18.14 72 72 18.14 72 17.86 17.86 72 18.14 72"/><polygon class="cls-1" points="0 72 0 72 0 72 0 72"/><polygon class="cls-1" points="17.86 0 0 17.86 0 18.14 18.14 0 17.86 0"/><polygon class="cls-2" points="0 0 0 17.86 17.86 0 0 0"/><polygon class="cls-2" points="72 72 72 54.14 54.14 72 72 72"/><polygon class="cls-2" points="17.86 72 72 17.86 72 0 54.14 0 0 54.14 0 72 0 72 17.86 72"/><polygon class="cls-3" points="18.14 0 0 18.14 0 53.86 53.86 0 18.14 0"/><polygon class="cls-3" points="53.86 72 72 53.86 72 18.14 18.14 72 53.86 72"/></pattern></defs><title>think_udl_logo</title><g id="background"><rect class="cls-8" width="1024" height="1024"/></g><g id="Logo"><g id="lit_bulb"><g id="Layer_22" data-name="Layer 22"><circle class="cls-9" cx="531" cy="270" r="243"/></g><path class="cls-10" d="M592.58,265c.06,37-19.91,31.67-25,87.33-9,16,10.34,8.5-35.83,8.5-42.5,2.84-29.83,9.17-37.5-9.83-.33-51.67-22.33-49.33-22.33-86-6-37.5,26.23-60.83,59.83-60.83A60.82,60.82,0,0,1,592.58,265Z"/><g id="Layer_7_copy" data-name="Layer 7 copy"><rect class="cls-11" x="500.17" y="361.92" width="63" height="47.33" rx="12"/><path class="cls-12" d="M509.25,413.71h43.63s-4.13,7.29-9.63,9.62-19.17,2.67-23.67,0S509.25,413.71,509.25,413.71Z"/><path class="cls-11" d="M565.25,359.11c0,1.11-14.46,8.59-33.34,8.59s-35-7.48-35-8.59,15.31-2,34.18-2S565.25,358,565.25,359.11Z"/><g id="Layer_10_copy" data-name="Layer 10 copy"><path class="cls-13" d="M519.74,323.31,503.42,266l19.18,56.42a1.5,1.5,0,0,1-2.84,1A.24.24,0,0,1,519.74,323.31Z"/><path class="cls-12" d="M538,325.48,552.88,266,541,326.13a1.5,1.5,0,0,1-2.94-.58S538,325.5,538,325.48Z"/></g><g id="Layer_11_copy" data-name="Layer 11 copy"><path class="cls-14" d="M505.46,272.62c-1.58.27-3.17.53-4.7.93a22.29,22.29,0,0,0-2.23.7,6.28,6.28,0,0,0-1,.49c-.28.18-.48.42-.46.49s0,.2.3.42a2.49,2.49,0,0,0,.74.48c.12.05.05,0-.06.05s0,0,0-.1a3.7,3.7,0,0,0,.11-1c0-1.51-.16-3.14-.13-4.79a14.38,14.38,0,0,1,.24-2.57,5.44,5.44,0,0,1,.47-1.35,3.27,3.27,0,0,1,1.07-1.23,3,3,0,0,1,1.6-.49c.26,0,.51,0,.76.06l.69.17c.89.31,1.56.62,2.31.94,1.47.61,2.91,1.29,4.41,1.85s3,1.11,4.51,1.61A59.66,59.66,0,0,0,533,271.93a74.71,74.71,0,0,0,9.47-.67,44.3,44.3,0,0,0,9.09-2.14l.69-.26.48.5a54.21,54.21,0,0,1,5.23,6.26,14.13,14.13,0,0,1,2.06,3.79,3.29,3.29,0,0,1,.12,1.42,1.87,1.87,0,0,1-.43.9,1.14,1.14,0,0,1-.38.32,1.32,1.32,0,0,1-.42.2l-.39.11-.34,0a3.14,3.14,0,0,1-.68,0,3.09,3.09,0,0,1-1.27-.47,4.76,4.76,0,0,1-1.58-1.79,10.59,10.59,0,0,1-.84-2,25.14,25.14,0,0,1-.81-4,44.47,44.47,0,0,1-.22-8.07.1.1,0,0,1,.2,0,68.24,68.24,0,0,0,1.12,7.88,22.75,22.75,0,0,0,1.09,3.74,5.59,5.59,0,0,0,1.93,2.78,1.6,1.6,0,0,0,.61.19,1.33,1.33,0,0,0,.56-.06c.08-.07,0,.05,0,0a1.81,1.81,0,0,0-.11-.55,14.23,14.23,0,0,0-1.88-3.15,76,76,0,0,0-5.1-6l1.16.25a32.45,32.45,0,0,1-4.82,1.28c-1.6.32-3.22.56-4.84.73-.81.1-1.62.17-2.44.2s-1.62.11-2.43.1h-2.44c-.81,0-1.62-.09-2.43-.13A110.52,110.52,0,0,1,513.9,270l-4.67-1.26c-1.56-.43-3.07-1-4.61-1.49-.76-.25-1.58-.55-2.21-.74a1.93,1.93,0,0,0-1.59.1,2.36,2.36,0,0,0-.77,1.49,11.26,11.26,0,0,0-.25,2.22c-.05,1.55.06,3.13,0,4.83a5.12,5.12,0,0,1-.25,1.39,1.74,1.74,0,0,1-.66.89,1.41,1.41,0,0,1-1.22,0,3.88,3.88,0,0,1-1.22-.88,3,3,0,0,1-.48-.67,1.61,1.61,0,0,1-.11-1A2.06,2.06,0,0,1,497,273.7a6.22,6.22,0,0,1,1.22-.49,16.14,16.14,0,0,1,2.43-.5,35.82,35.82,0,0,1,4.84-.29.09.09,0,0,1,.1.1A.11.11,0,0,1,505.46,272.62Z"/></g><path class="cls-15" d="M541,345.6a20.81,20.81,0,0,0-1.27-3.76,36.15,36.15,0,0,0,1.73-4.51,13.51,13.51,0,0,0,.6-6,9.26,9.26,0,0,0-2.57-5.53,11.47,11.47,0,0,0-5.75-2.69,24.37,24.37,0,0,0-3.1-.4l-3-.26a28.77,28.77,0,0,0-3.12-.12,11.59,11.59,0,0,0-3.39.53,6.21,6.21,0,0,0-3.14,2.26,7.68,7.68,0,0,0-1.33,3.4,20.57,20.57,0,0,0,.21,6.44,63.24,63.24,0,0,0,1.66,7,14.29,14.29,0,0,0-1.08,1.8,23.08,23.08,0,0,0-1.91,12.41,27.25,27.25,0,0,0,1.47,6.13,20.23,20.23,0,0,0,3.24,5.56,13.41,13.41,0,0,0,5.36,3.93,10.24,10.24,0,0,0,3.36.66h.86l.88-.14a6.52,6.52,0,0,0,1.66-.5,12.09,12.09,0,0,0,4.82-4,23.76,23.76,0,0,0,2.86-5.19,25.45,25.45,0,0,0,1.62-5.58,18.94,18.94,0,0,0,.24-5.77A42.34,42.34,0,0,0,541,345.6Zm-18.83-19.78a19.18,19.18,0,0,1,5.4-.48c1,0,2,0,3-.07s1.93-.15,2.9-.13a9.64,9.64,0,0,1,5.38,1.38,6.07,6.07,0,0,1,1.89,2.1,10.15,10.15,0,0,1,1,2.77,12.2,12.2,0,0,1-.58,5.86,27.18,27.18,0,0,1-1.74,4,9.16,9.16,0,0,0-.69-1.1,9.67,9.67,0,0,0-2.17-2.16,10.08,10.08,0,0,0-2.84-1.28,17.34,17.34,0,0,0-3-.54,12.47,12.47,0,0,0-1.53-.09,9.53,9.53,0,0,0-1.6.08,11.94,11.94,0,0,0-6,2.49,14.36,14.36,0,0,0-1.17,1,51.3,51.3,0,0,1-1-5.13C519,330.89,519.31,326.49,522.17,325.82Zm17,16.09c-.14.25-.27.51-.41.77-2,3.48-4.18,6.81-6.24,10.25-1.05,1.72-2.05,3.46-3,5.22-.26.47-.46.85-.61.91s-.06,0-.12,0a1.16,1.16,0,0,1-.33-.16,7.75,7.75,0,0,1-1.67-2,53.86,53.86,0,0,1-4.55-10.83c-.39-1.24-.75-2.51-1.09-3.77a11.56,11.56,0,0,1,1.85-2.1,10.16,10.16,0,0,1,5-2.48,9.55,9.55,0,0,1,1.4-.17,11.06,11.06,0,0,1,1.41,0,15.59,15.59,0,0,1,2.82.29,9,9,0,0,1,2.63.95,8.13,8.13,0,0,1,2.09,1.83A8.91,8.91,0,0,1,539.13,341.91Zm2.2,15.06a22.63,22.63,0,0,1-1.83,5.38,21.42,21.42,0,0,1-3.09,4.75,11,11,0,0,1-4.51,3.27,7.36,7.36,0,0,1-5.41-.39,11.62,11.62,0,0,1-4.26-3.59,21.07,21.07,0,0,1-3.86-10.5,24.44,24.44,0,0,1,0-5.67,19.41,19.41,0,0,1,1.22-5.05c.18.53.35,1.07.53,1.59a54.93,54.93,0,0,0,5.11,11.12,9.09,9.09,0,0,0,2.25,2.48,2.71,2.71,0,0,0,1,.4,1.82,1.82,0,0,0,1.3-.32,2.52,2.52,0,0,0,.73-.82c.18-.3.24-.46.37-.7.9-1.78,1.84-3.54,2.77-5.31,1.88-3.52,3.82-7,5.55-10.68l.21-.43a20.2,20.2,0,0,1,1.2,3.2,42.76,42.76,0,0,1,1,5.62A18.52,18.52,0,0,1,541.33,357Z"/><g id="Layer_6_copy" data-name="Layer 6 copy"><path class="cls-16" d="M497.09,361.56c-.1,2.27-1,12.08.49,13.11l2.46,1.71s46.54-1.05,62.75-3.5c2.46-.21,2.46-2.88,2.46-2.88a40.36,40.36,0,0,0,0-8.88C564.66,357.44,497.19,359.29,497.09,361.56Z"/><path class="cls-16" d="M499.28,381.37c7.47,2.13,57.14-2.2,63.64-3.87,6.16,1.17.66,3.87.66,3.87s-34.5,5.38-63.66,5C497.33,386.39,494.31,383.9,499.28,381.37Z"/><path class="cls-16" d="M499.79,390.75c14.63,3.08,64.69-4,64.69-4s3.6,2.42-.9,4.25-58.25,6.67-63.79,4.67S499.79,390.75,499.79,390.75Z"/><path class="cls-16" d="M500.54,400.25c14.13-.25,41.88.5,63-3.58,5.84,1.33-1,5.12-1,5.12-.71,5.33-9.57,12.1-12.21,13.56-5.84,1.15-36.34,1.82-39.17,0s-7.05-7.11-12-12.89C498,402.27,499.28,399.5,500.54,400.25Z"/></g></g><g id="Layer_8_copy" data-name="Layer 8 copy"><path class="cls-12" d="M505.45,209.65a45.85,45.85,0,0,0-15.56,8.59,50.34,50.34,0,0,0-11.41,13.56,59.32,59.32,0,0,0-3.77,8,60.12,60.12,0,0,0-2.5,8.51A77.59,77.59,0,0,0,470.48,266l0-.25a182.37,182.37,0,0,0,7.47,23.06c1.49,3.76,3.1,7.47,4.71,11.19s3.29,7.44,4.81,11.24,3,7.61,4.21,11.58a76.06,76.06,0,0,1,2.5,12.14c.5,4.08.75,8.16,1.08,12.2.17,2,.31,4,.62,6a18.93,18.93,0,0,0,1.61,5.77l-.26.15a17.83,17.83,0,0,1-2.28-5.74c-.48-2-.87-4-1.16-6-.61-4-1.13-8.06-1.89-12a82.52,82.52,0,0,0-2.9-11.64c-.3-.94-.65-1.88-1-2.82s-.71-1.89-1.09-2.82c-.71-1.89-1.48-3.75-2.26-5.62-3.17-7.44-6.42-15-9.22-22.64a196.65,196.65,0,0,1-7-23.52l0-.13V266A79.55,79.55,0,0,1,470.51,248a61.32,61.32,0,0,1,2.75-8.69,57.9,57.9,0,0,1,4.09-8.14,51.13,51.13,0,0,1,12-13.51,46.42,46.42,0,0,1,16-8.26Z"/><path class="cls-12" d="M558.92,209.35c1.55.45,3.12.92,4.65,1.5l2.24,1,1.12.51,1.08.59a42,42,0,0,1,8.08,5.62A38.8,38.8,0,0,1,582.5,226a26.59,26.59,0,0,1,3.92,9,47.19,47.19,0,0,0-5.19-8.06c-.48-.62-1-1.24-1.51-1.83s-1-1.21-1.59-1.76-1.06-1.17-1.64-1.7L574.75,220c-.58-.53-1.2-1-1.79-1.54l-.91-.77-1-.7c-.63-.48-1.25-1-1.89-1.44s-1.33-.88-2-1.33l-1-.67-1-.61-2.06-1.24C561.76,210.91,560.31,210.21,558.92,209.35Z"/><path class="cls-12" d="M563.17,359c1.17-2.09,2.4-4.16,3.61-6.23l0,.11a86.36,86.36,0,0,0,1.32-9c.3-3,.36-6.06.63-9.15a59.76,59.76,0,0,1,1.59-9.18c.45-1.48.85-3,1.35-4.45s1-2.92,1.59-4.35l1.77-4.27c.63-1.41,1.31-2.79,1.95-4.19,1.29-2.79,2.76-5.49,4.16-8.22s3-5.36,4.52-8,3.16-5.25,4.81-7.84l-8,16.52c-2.55,5.55-5.2,11.05-7.36,16.72-.56,1.41-1,2.86-1.55,4.27s-.9,2.88-1.35,4.33a69.32,69.32,0,0,0-1.72,8.86c-.33,3-.58,6.07-1,9.13a66.1,66.1,0,0,1-2,9l0,.07,0,0C566,355.15,564.6,357.11,563.17,359Z"/><path class="cls-15" d="M557.92,212.35a1.44,1.44,0,0,1-1,1.28,6.19,6.19,0,0,1-1.65.38,22.82,22.82,0,0,1-3.41.05c-2.27-.11-4.53-.34-6.79-.56-4.52-.44-9.05-.84-13.57-.88a94.39,94.39,0,0,0-13.53,1c-2.25.28-4.49.62-6.79.81a12.12,12.12,0,0,1-3.54-.12,3,3,0,0,1-.93-.4,1.73,1.73,0,0,1-.7-.89,2.6,2.6,0,0,1,.22-2,6.77,6.77,0,0,1,2.74-2.41,20.47,20.47,0,0,1,3.22-1.34,42,42,0,0,1,6.71-1.52,73.33,73.33,0,0,1,13.65-.61,90.47,90.47,0,0,1,13.54,1.6,48.49,48.49,0,0,1,6.6,1.72,18.76,18.76,0,0,1,3.11,1.38,6.81,6.81,0,0,1,1.36,1A2.3,2.3,0,0,1,557.92,212.35Zm0,0a2.33,2.33,0,0,0-.75-1.48,6.38,6.38,0,0,0-1.37-1,17.61,17.61,0,0,0-3.12-1.35,48.08,48.08,0,0,0-6.59-1.64,87.84,87.84,0,0,0-13.53-1.25,76.23,76.23,0,0,0-13.51,1,42.77,42.77,0,0,0-6.55,1.56,19.19,19.19,0,0,0-3.05,1.31,5.85,5.85,0,0,0-2.32,2,1.65,1.65,0,0,0-.18,1.24c.09.34.47.56.95.69a11.54,11.54,0,0,0,3.24.13c2.23-.16,4.49-.48,6.75-.74a92.69,92.69,0,0,1,13.64-.69c4.55.15,9.07.71,13.58,1.23,2.25.25,4.51.5,6.78.64a24,24,0,0,0,3.39,0,6.25,6.25,0,0,0,1.66-.37A1.42,1.42,0,0,0,557.92,212.35Z"/><path class="cls-17" d="M558.56,209.84A63.48,63.48,0,0,1,585,232.18a54.89,54.89,0,0,1,4.34,7.8,51.17,51.17,0,0,1,4.37,17.38c.07.75.07,1.5.1,2.25s.06,1.51,0,2.24l-.13,4.42a20.73,20.73,0,0,1-.17,2.22l-.24,2.21-.25,2.21-.41,2.2a43.75,43.75,0,0,1-1,4.37l-.6,2.15-.31,1.08-.39,1.05a77.5,77.5,0,0,1-7.89,15.77,158.66,158.66,0,0,0-8.5,14.78,90,90,0,0,0-5.81,16.06,65.86,65.86,0,0,1,3.55-17c.49-1.37,1-2.75,1.6-4.08s1.15-2.69,1.8-4,1.28-2.62,2-3.89l2-3.81a90.14,90.14,0,0,0,6.78-15.33A68.78,68.78,0,0,0,588.75,266l.15-4.18a20.42,20.42,0,0,0,0-2.07c0-.68,0-1.37-.07-2.05a55.6,55.6,0,0,0-1.1-8.12,59,59,0,0,0-2.4-7.87,59.21,59.21,0,0,0-8.23-14.42,70.89,70.89,0,0,0-5.5-6.4A80.45,80.45,0,0,0,558.56,209.84Z"/><path class="cls-18" d="M547.1,223.78a13.28,13.28,0,0,1,4.4-.87,18.77,18.77,0,0,1,4.25.31,20.81,20.81,0,0,1,4,1.21,18.79,18.79,0,0,1,3.67,1.91,26.68,26.68,0,0,1,10.19,12.51c.45,1.25.86,2.53,1.21,3.81a11.15,11.15,0,0,1,.4,1.94c.09.66.18,1.3.24,2a25.8,25.8,0,0,1-.33,7.75,9.64,9.64,0,0,1-.43,1.88c-.19.62-.37,1.23-.62,1.84a33.2,33.2,0,0,1-1.53,3.58,28,28,0,0,1-2.29,3.35,20.56,20.56,0,0,1-3,3.09l-.34.29a.51.51,0,0,1-.85-.39c0-2.12,0-4.23,0-6.33l-.22-3.13a26.8,26.8,0,0,0-.31-3.12,54.78,54.78,0,0,0-1.17-6.13l-.38-1.51a9.49,9.49,0,0,0-.45-1.49l-1.06-2.91a38.88,38.88,0,0,0-6.32-10.58l-1-1.19-1.09-1.1a30.35,30.35,0,0,0-2.29-2.09,27.22,27.22,0,0,0-5.1-3.48.53.53,0,0,1-.24-.71.61.61,0,0,1,.29-.26Z"/></g></g><g id="Layer_1" data-name="Layer 1"><path class="cls-19" d="M290.35,173.27v19.61H206.16V414.67h-23V192.88H99.33V173.27Z"/><path class="cls-19" d="M332.91,174.27v97h.68q6.07-15.89,21.63-25.53a63.62,63.62,0,0,1,34.15-9.63q18.25,0,30.6,4.73t19.78,13.36a49.83,49.83,0,0,1,10.48,21.13,118.86,118.86,0,0,1,3,28.06V415.67H432V306.8a101,101,0,0,0-2-20.79,44,44,0,0,0-7.1-16.74,34.4,34.4,0,0,0-13.69-11.15q-8.62-4.06-21.47-4.06a54.31,54.31,0,0,0-22.82,4.56A49.46,49.46,0,0,0,348,271.13a57.6,57.6,0,0,0-10.81,18.93,76.82,76.82,0,0,0-4.23,23.84V415.67h-21.3V174.27Z"/><path class="cls-19" d="M634,240.21V270.3h.68q6.07-15.89,21.63-25.53a63.62,63.62,0,0,1,34.15-9.63q18.25,0,30.6,4.73t19.78,13.36a49.83,49.83,0,0,1,10.48,21.13,118.86,118.86,0,0,1,3,28.06V414.67h-21.3V305.8A101,101,0,0,0,731,285a44,44,0,0,0-7.1-16.74,34.4,34.4,0,0,0-13.69-11.15q-8.62-4.06-21.47-4.06A54.31,54.31,0,0,0,666,257.62a49.46,49.46,0,0,0-16.91,12.51,57.6,57.6,0,0,0-10.81,18.93A76.82,76.82,0,0,0,634,312.9V414.67h-21.3V240.21Z"/><path class="cls-19" d="M795.9,175.27V326.73l96.7-84.52H921l-74.39,64.58,79.46,109.88H899.36l-69-95L795.9,350.4v66.27H774.6V175.27Z"/></g><g id="Layer_3" data-name="Layer 3"><path class="cls-20" d="M315.67,842c-41.49,0-77.32-14.69-95.85-39.29-16.5-21.92-36.93-64.62-40.56-143.56-1.77-38.36,1.33-94.11,12.29-126.18,8-11,27.7-27,45.15-27,10.22,0,18,5.62,23.12,16.71-2.83,8.17-12.38,46.9-16.73,92.35C239,657.82,238.77,716,261,750.23c12.57,19.37,31,29.25,54.66,29.37,23.64-.12,41.94-9.93,54.42-29.16,12.25-18.87,25.21-57.64,17.44-135.23-4.54-45.39-14.27-84.3-17.14-92.5,5-10.75,12.68-16.2,22.94-16.2,17.82,0,37.45,15.7,45.33,26.5,11,32.07,14.06,87.82,12.29,126.18-3.63,78.94-24.06,121.64-40.57,143.56C391.57,827.72,357.06,842,315.67,842Z"/><path class="cls-13" d="M236.7,508.5c9,0,15.71,4.7,20.43,14.36-3.56,10.93-12.49,49.8-16.53,92-2.63,27.43-2.89,52.14-.76,73.46,2.66,26.62,9.07,47.92,19.06,63.31C272,771.71,291.05,782,315.65,782.1h.05c24.51-.13,43.51-10.32,56.48-30.3,10-15.37,16.33-36.67,18.89-63.3,2.05-21.33,1.69-46.07-1.06-73.54-4.22-42.1-13.33-81.13-16.94-92.1,4.58-9.31,11.21-13.85,20.25-13.85,7.2,0,15.94,3,24.61,8.56a72.35,72.35,0,0,1,18.47,16.61c4.15,12.3,7.65,30.47,9.89,51.3a490,490,0,0,1,2.15,73.6c-1.3,28.45-5,54.6-11.06,77.7-6.89,26.36-16.64,48.05-29,64.46-18.33,24.34-52.12,38.3-92.71,38.3s-75.79-14.31-93.85-38.3c-12.36-16.41-22.11-38.1-29-64.46-6-23.1-9.76-49.25-11.07-77.7a491.3,491.3,0,0,1,2.16-73.6c2.24-20.83,5.74-39,9.89-51.3,7.84-10.57,26.47-25.68,42.9-25.68m0-5c-18.1,0-38.64,16.13-47.39,28.35-17,49.11-26,200,28.52,272.4,19.49,25.89,56.28,40.29,97.84,40.29s77.21-14.4,96.7-40.29c54.53-72.42,45.48-223.29,28.52-272.4C432.15,519.64,411.43,504,393.32,504c-10.29,0-19.72,5-25.65,18.61,5.42,12.31,64.37,253.89-52,254.48-116.36-.59-58.56-242.17-53.14-254.48C256.42,508.67,247,503.5,236.7,503.5Z"/><path class="cls-21" d="M758.41,841.14c-28.57,0-81.6-2-116-15.17-.36-.17-.71-.35-1.08-.55,41.56-33.92,66.27-90.56,66.27-152.36,0-31.95-6.78-63.41-19.6-91-11.9-25.56-28.72-47.3-48.78-63.09,19.83-11.13,47.38-13.51,67.33-13.51,20.39,0,38.89,2.54,48.18,5.07,5.37,1.46,15.64,32.19,20.62,93.53,4.91,60.4,1.71,119-8.55,156.77l-.46,1.71,1.46,1a33.38,33.38,0,0,0,19.29,6c14.81,0,29.66-8.69,44-17.09,12.05-7,23.44-13.71,32.71-13.71a15.71,15.71,0,0,1,5.78,1c5.48,2.14,11.59,13.72,12.66,31.7,1.26,21.07-5.12,47.71-26.8,59.32-9.47,5.07-48.36,10.3-97.08,10.3Z"/><path class="cls-13" d="M706.58,508c20,0,38.14,2.46,47.33,4.93.57.44,5,4.63,10.28,28.65,3.87,17.66,7,41,8.93,65.69,4.6,59.91,1.43,115.65-8.7,152.94l-.93,3.42,2.92,2a35.88,35.88,0,0,0,20.71,6.46c15.48,0,30.64-8.86,45.29-17.43,11.76-6.88,22.86-13.37,31.45-13.37a13.18,13.18,0,0,1,4.87.86c4.69,1.83,10.11,13.38,11.08,29.52,1.21,20.3-4.85,45.92-25.49,57-9,4.81-48.22,10-95.92,10-62.17,0-96.26-8.31-112.26-14,18.38-15.89,33.79-36.83,44.82-61,12.54-27.52,19.17-58.84,19.17-90.58,0-32.31-6.86-64.14-19.84-92-11.46-24.64-27.46-45.79-46.51-61.59,11.72-5.75,31.3-11.46,62.8-11.46m0-5c-24.45,0-51.86,3.59-70.7,15.09-.35.21-.69.47-1,.7,42,31.42,70.28,88.81,70.28,154.28,0,64.32-27.24,120.82-68.06,152.58a28.17,28.17,0,0,0,4.39,2.63c29.34,11.29,75,15.37,116.94,15.37,46.07,0,87.66-4.91,98.28-10.6,39.2-21,31.41-88.69,13.87-95.55a18.23,18.23,0,0,0-6.69-1.2c-21.13,0-50,30.8-76.74,30.8a30.68,30.68,0,0,1-17.87-5.58C793,674.19,773.15,513,755.41,508.14c-9.41-2.55-28-5.15-48.83-5.15Z"/><path class="cls-22" d="M516.13,842c-40.75,0-73.42-4.83-99.68-14.77A67.35,67.35,0,0,0,431,813.6c18.36-24.33,41.06-70.62,45-153,2-41.71-1.68-98.44-14.39-131.14l-.65-1.7-1.14-1.41a71,71,0,0,0-12-11.44c15.12-2.76,58.19-9.86,101.41-9.86,73,0,132.32,75.36,132.32,168,0,44.48-13.84,86.17-39,117.39C618,821,584.75,839,549.09,841.05c-11.42.66-22.5,1-33,1Zm20.43-265.78c10.81,58.61,6.52,107.44,1,138.09-6,33.22-14.59,52.83-14.68,53l-1.57,3.51h3.86c31.7,0,56.22-9.54,72.85-28.37,14.72-16.66,22.5-40.21,22.5-68.11,0-33.48-8.14-59.44-24.18-77.15-14.19-15.67-34-24-57.34-24h-3Z"/><path class="cls-13" d="M549.24,507.58c71.58,0,129.82,74.23,129.82,165.48,0,43.91-13.64,85-38.43,115.82-24.18,30-56.74,47.67-91.68,49.68-11.37.65-22.41,1-32.82,1-38.24,0-69.28-4.27-94.5-13A64,64,0,0,0,433,815.11c14.2-18.83,25.36-43,33.16-71.75,6.75-24.87,10.9-52.66,12.33-82.61,2.78-58.26-5.31-108.36-14.56-132.17l-.51-1.33-.28-.72-.49-.6-.9-1.12a66.31,66.31,0,0,0-8.16-8.36c18.3-3.15,56.88-8.87,95.61-8.87M520.62,766.36h0l-3.14,7h7.71c16.46,0,31.27-2.6,44-7.75a80.94,80.94,0,0,0,30.72-21.46C615,727.06,623,702.93,623,674.41c0-34.12-8.35-60.64-24.83-78.82-14.68-16.21-35.15-24.78-59.19-24.78h-6l1.09,5.91c10.72,58.15,6.49,106.59,1,137-5.88,32.85-14.39,52.29-14.54,52.64m28.62-263.78c-54.28,0-107.58,11-107.58,11A75.47,75.47,0,0,1,457.9,528l.9,1.11.51,1.33C478.59,580,488.05,733.87,429.05,812.1c-4.7,6.22-11,11.19-17.86,15.78,20.47,8.42,52.32,16.66,104.94,16.66,10.23,0,21.24-.31,33.11-1,74.34-4.27,134.82-76.33,134.82-170.49S623.7,502.58,549.24,502.58Zm-24,265.81S560.11,690.15,539,575.81c42.61,0,79,28.82,79,98.6,0,51.9-27.37,94-92.85,94Z"/></g></g></svg>