<?xml version="1.0" standalone="no"?>
<!DOCTYPE svg PUBLIC "-//W3C//DTD SVG 20010904//EN"
 "http://www.w3.org/TR/2001/REC-SVG-20010904/DTD/svg10.dtd">
<svg version="1.0" xmlns="http://www.w3.org/2000/svg"
 width="512.000000pt" height="512.000000pt" viewBox="0 0 512.000000 512.000000"
 preserveAspectRatio="xMidYMid meet">
<metadata>
Created by potrace 1.11, written by Peter Selinger 2001-2013
</metadata>
<g transform="translate(0.000000,512.000000) scale(0.100000,-0.100000)"
fill="#000000" stroke="none">
<path d="M2369 5026 c-2 -2 -31 -7 -64 -11 -137 -15 -424 -102 -540 -163 -36
-19 -158 -94 -165 -102 -3 -3 -21 -17 -40 -31 -194 -145 -370 -446 -419 -714
-6 -33 -14 -71 -17 -85 -16 -74 -23 -275 -11 -320 3 -14 15 -59 25 -100 51
-197 121 -398 232 -665 143 -344 181 -441 205 -519 23 -76 67 -282 79 -371 3
-22 10 -78 17 -125 6 -47 27 -132 46 -189 26 -80 33 -114 28 -145 -8 -54 -7
-238 1 -259 3 -9 21 -26 38 -37 31 -18 33 -23 32 -71 -2 -48 -4 -52 -34 -65
-32 -13 -54 -48 -45 -71 3 -6 22 -18 42 -27 36 -14 38 -17 36 -54 -1 -31 -9
-46 -35 -69 -39 -35 -35 -69 11 -85 17 -6 28 -15 26 -22 -2 -6 2 -28 9 -48 12
-34 11 -37 -8 -40 -31 -5 -47 -34 -26 -50 8 -7 44 -47 79 -88 111 -131 270
-298 326 -341 74 -57 151 -78 295 -77 102 0 150 4 242 23 70 14 146 71 214
158 26 34 88 103 138 152 59 58 99 108 114 140 13 28 38 63 57 78 42 36 43 65
4 78 -34 12 -37 22 -33 90 3 31 9 49 16 49 7 0 21 9 31 20 15 17 16 24 7 45
-7 15 -20 25 -32 25 -14 0 -20 7 -21 23 0 12 -1 37 -2 56 -2 26 4 37 23 50 48
30 49 46 6 71 -23 13 -28 23 -31 62 -2 38 1 48 15 53 10 3 23 19 28 34 12 35
14 229 2 236 -11 7 7 82 32 130 33 65 58 165 73 298 3 26 7 68 10 95 11 95 15
118 34 207 33 147 108 331 261 640 137 277 179 386 206 535 3 14 7 32 9 40 27
96 24 420 -5 535 -6 22 -12 48 -15 58 -11 49 -52 151 -91 227 -23 47 -52 109
-63 137 -56 142 -190 292 -346 386 -88 52 -216 102 -234 90 -10 -7 -39 1 -95
24 -161 68 -335 101 -532 102 -78 0 -143 -2 -145 -3z m801 -136 c8 -5 11 -10
5 -10 -5 0 -17 5 -25 10 -8 5 -10 10 -5 10 6 0 17 -5 25 -10z m-2001 -1067
c-1 -16 1 -62 5 -103 12 -130 13 -161 6 -153 -17 18 -27 82 -24 163 3 117 3
120 9 120 3 0 5 -12 4 -27z"/>
</g>
</svg>
